<svg width="163" height="163" viewBox="0 0 163 163" fill="none" xmlns="http://www.w3.org/2000/svg">
<path d="M51.8 77.2824C41.1575 77.2824 33.9583 69.8659 33.9583 58.877C33.9583 48.9883 42.217 40.75 53.4029 40.75C65.655 40.75 74.7083 50.6387 74.7083 65.7433C74.7083 100.075 49.6742 113.808 33.9583 115.458V100.354C44.6144 98.4316 56.5949 87.7212 57.1315 75.9037C56.5949 76.1753 54.4691 77.2824 51.8 77.2824Z" fill="#F0F2F3"/>
<path d="M106.133 77.2824C95.4841 77.2824 88.2917 69.8659 88.2917 58.877C88.2917 48.9883 96.5504 40.75 107.736 40.75C119.988 40.75 129.042 50.6387 129.042 65.7433C129.042 100.075 104.008 113.808 88.2917 115.458V100.354C98.9478 98.4316 110.928 87.7212 111.465 75.9037C110.928 76.1753 108.803 77.2824 106.133 77.2824Z" fill="#F0F2F3"/>
</svg>
